# xmcd
#
# Track frame offsets:
#	150
#	17455
#	32822
#	48358
#	62437
#	78164
#	88974
#	101356
#	115537
#	132999
#	142667
#	153477
#	169585
#	180811
#	192820
#	205448
#	222778
#	234806
#	248959
#	263220
#
# Disc length: 3703 seconds
#
# Revision: 1
# Processed by: cddbd v1.5.2PL0 Copyright (c) Steve Scherf et al.
# Submitted via: audiograbber 1.83.01
#
DISCID=f60e7514
DTITLE=Varios - Svenska Countryfavoriter
DYEAR=2007
DGENRE=Country
TTITLE0=Kikki Danielson - Us of America
TTITLE1=Elisabeth Andreasson - Morning Train
TTITLE2=Mats Rådberg and Rankarna - Peta in en pinne i brasan
TTITLE3=Inger Nordström - Sylvie Marie
TTITLE4=Ann Kihlström - Förgät mig ej
TTITLE5=Mats Rådberg and Elisabeth  - Will the cirkle be unbroken
TTITLE6=Kikki Danielson - 9 To 5
TTITLE7=Mats Rådberg and Rankarna - Du kan alltid lita på pojkarna över 25
TTITLE8=Elisabeth Andreasson - Angel of morning
TTITLE9=Kikki Danielson - Cowboy Jodle Song
TTITLE10=Kentucy - Rawhide
TTITLE11=Mats Rådberg and Elisabeth - Help me make in though the night
TTITLE12=Christina Lindberg - Hey good looking
TTITLE13=Kikki Danielson - Stand by your man
TTITLE14=Mats Rådberg and Rankarna - Ruby don´t take your lovein town
TTITLE15=Elisabeth Andreasson - Together again
TTITLE16=Mats Rådberg and Rankarna - Some broken hearts never end
TTITLE17=Kikki Danielson - Nashville Tennessee
TTITLE18=Alf Robertson - Liljor
TTITLE19=Mats Rådberg and Rankarna - Early morning rain
EXTD=
EXTT0=
EXTT1=
EXTT2=
EXTT3=
EXTT4=
EXTT5=
EXTT6=
EXTT7=
EXTT8=
EXTT9=
EXTT10=
EXTT11=
EXTT12=
EXTT13=
EXTT14=
EXTT15=
EXTT16=
EXTT17=
EXTT18=
EXTT19=
PLAYORDER=
